<?xml version="1.0"?>
<svg xmlns="http://www.w3.org/2000/svg" xmlns:xlink="http://www.w3.org/1999/xlink" version="1.1" id="Capa_1" x="0px" y="0px" viewBox="0 0 511 511" style="enable-background:new 0 0 511 511;" xml:space="preserve" width="512px" height="512px" class=""><g><g>
	<path d="M503.5,452H479v-88.5c0-4.142-3.358-7.5-7.5-7.5H463v-72.5c0-45.868-14.971-88.3-40.267-122.689l23.039-23.039   c2.929-2.929,2.929-7.678,0-10.606l-33.938-33.938c-2.929-2.929-7.678-2.929-10.606,0l-23.039,23.039   c-11.993-8.822-24.963-16.387-38.719-22.498l6.115-15.287c1.563-3.908,1.469-8.354-0.257-12.197   c-1.726-3.84-4.841-6.735-8.772-8.151C310.517,48.755,283.246,44,255.5,44c-62.501,0-121.649,23.933-166.548,67.389   C44.16,154.742,18.304,212.865,16.146,275.05c-0.145,4.18,1.388,8.151,4.316,11.183c2.926,3.03,7.015,4.767,11.219,4.767H48v65   h-8.5c-4.142,0-7.5,3.358-7.5,7.5V452H7.5c-4.142,0-7.5,3.358-7.5,7.5s3.358,7.5,7.5,7.5h496c4.142,0,7.5-3.358,7.5-7.5   S507.642,452,503.5,452z M383,356v-41h65v41H383z M143,356v-41h225v41H143z M128,300H63v-16.5   c0-84.829,55.157-157.012,131.488-182.585c-11.054,9.76-21.249,22.266-30.273,37.304C140.862,177.144,128,228.738,128,283.5V300z    M143,283.5c0-52.083,12.103-100.937,34.078-137.563C198.334,110.51,226.185,91,255.5,91s57.166,19.51,78.421,54.938   C355.897,182.563,368,231.417,368,283.5V300H143V283.5z M448,300h-65v-16.5c0-54.762-12.862-106.356-36.216-145.28   c-9.023-15.039-19.219-27.545-30.273-37.304C392.843,126.488,448,198.671,448,283.5V300z M406.531,109.138l23.331,23.331   l-16.51,16.51c-7.15-8.378-14.953-16.181-23.331-23.331L406.531,109.138z M31.251,275.812c-0.119-0.123-0.116-0.209-0.114-0.242   c2.022-58.285,26.259-112.764,68.247-153.403C141.47,81.434,196.914,59,255.5,59c26.008,0,51.568,4.457,75.973,13.247   c0.032,0.012,0.106,0.039,0.172,0.186c0.041,0.09,0.096,0.271,0.013,0.479L325.55,88.18C303.656,80.304,280.073,76,255.5,76   C143.596,76,52.114,165.046,48.15,276H31.682C31.465,276,31.319,275.882,31.251,275.812z M63,315h65v41H63V315z M47,371h417v81H295   v-48.5c0-8.547-6.953-15.5-15.5-15.5h-48c-8.547,0-15.5,6.953-15.5,15.5V452H47V371z M280,452h-49v-48.5c0-0.276,0.224-0.5,0.5-0.5   h48c0.276,0,0.5,0.224,0.5,0.5V452z" data-original="#000000" class="active-path" data-old_color="#000000" fill="#AEE5FF"/>
	<path d="M327.5,435h32c4.142,0,7.5-3.358,7.5-7.5v-32c0-4.142-3.358-7.5-7.5-7.5h-32c-4.142,0-7.5,3.358-7.5,7.5v32   C320,431.642,323.358,435,327.5,435z M335,403h17v17h-17V403z" data-original="#000000" class="active-path" data-old_color="#000000" fill="#AEE5FF"/>
	<path d="M183.5,388h-32c-4.142,0-7.5,3.358-7.5,7.5v32c0,4.142,3.358,7.5,7.5,7.5h32c4.142,0,7.5-3.358,7.5-7.5v-32   C191,391.358,187.642,388,183.5,388z M176,420h-17v-17h17V420z" data-original="#000000" class="active-path" data-old_color="#000000" fill="#AEE5FF"/>
	<path d="M111.5,388h-32c-4.142,0-7.5,3.358-7.5,7.5v32c0,4.142,3.358,7.5,7.5,7.5h32c4.142,0,7.5-3.358,7.5-7.5v-32   C119,391.358,115.642,388,111.5,388z M104,420H87v-17h17V420z" data-original="#000000" class="active-path" data-old_color="#000000" fill="#AEE5FF"/>
	<path d="M399.5,435h32c4.142,0,7.5-3.358,7.5-7.5v-32c0-4.142-3.358-7.5-7.5-7.5h-32c-4.142,0-7.5,3.358-7.5,7.5v32   C392,431.642,395.358,435,399.5,435z M407,403h17v17h-17V403z" data-original="#000000" class="active-path" data-old_color="#000000" fill="#AEE5FF"/>
</g></g> </svg>
