<?xml version="1.0" encoding="UTF-8"?>
<!DOCTYPE svg PUBLIC "-//W3C//DTD SVG 1.1//EN" "http://www.w3.org/Graphics/SVG/1.1/DTD/svg11.dtd">
<svg version="1.1" id="Layer_1" xmlns="http://www.w3.org/2000/svg" xmlns:xlink="http://www.w3.org/1999/xlink" x="0px" y="0px"
 viewBox="0 0 100% 100%" xml:space="preserve">
<title>Hexagons</title>
<pattern width="60" height="34.64" patternUnits="userSpaceOnUse" id="Unnamed_Pattern" viewBox="0 0 120 69.28">
	<g id="row">
		<filter id="s">
      <feGaussianBlur stdDeviation="5"/>
    </filter>
		<path style="filter: url(#s)" id="unit" d="M-20,-34.64H20L40,0L20,34.64H-20L-40,0Z" fill="none" stroke="rgba(0, 160, 235, 0.5)" stroke-width="2"/>
		<use xlink:href="#unit" x="-240"/><use xlink:href="#unit" x="-120"/><use xlink:href="#unit" x="120"/><use xlink:href="#unit" x="240"/>
	</g>
	<g id="row2">
		<path id="unit2" d="M-20,-34.64H20L40,0L20,34.64H-20L-40,0Z" fill="none" stroke="rgba(0, 144, 212, 0.2)" stroke-width="2"/>
		<use xlink:href="#unit2" x="-240"/><use xlink:href="#unit2" x="-120"/><use xlink:href="#unit2" x="120"/><use xlink:href="#unit2" x="240"/>
	</g>
	<use xlink:href="#row" x="60" y="-34.64"/><use xlink:href="#row" x="60" y="34.64"/>
	<use xlink:href="#row" x="0" y="-69.28"/><use xlink:href="#row" x="0" y="69.28"/>
	<use xlink:href="#row" x="60" y="-103.92"/><use xlink:href="#row" x="60" y="103.92"/>
	<use xlink:href="#row" x="0" y="-138.56"/><use xlink:href="#row" x="0" y="138.56"/>
	<use xlink:href="#row" x="60" y="-173.20"/><use xlink:href="#row" x="60" y="173.20"/>

	<use xlink:href="#row2" x="60" y="-34.64"/><use xlink:href="#row2" x="60" y="34.64"/>
	<use xlink:href="#row2" x="0" y="-69.28"/><use xlink:href="#row2" x="0" y="69.28"/>
	<use xlink:href="#row2" x="60" y="-103.92"/><use xlink:href="#row2" x="60" y="103.92"/>
	<use xlink:href="#row2" x="0" y="-138.56"/><use xlink:href="#row2" x="0" y="138.56"/>
	<use xlink:href="#row2" x="60" y="-173.20"/><use xlink:href="#row2" x="60" y="173.20"/>

</pattern>
<rect fill="url(#Unnamed_Pattern)" width="100%" height="100%"/>
</svg>
